<?xml version="1.0" standalone="no"?>
<!DOCTYPE svg PUBLIC "-//W3C//DTD SVG 20010904//EN"
 "http://www.w3.org/TR/2001/REC-SVG-20010904/DTD/svg10.dtd">
<svg version="1.0" xmlns="http://www.w3.org/2000/svg"
 width="260.000000pt" height="260.000000pt" viewBox="0 0 260.000000 260.000000"
 preserveAspectRatio="xMidYMid meet">
<metadata>
Created by potrace 1.11, written by Peter Selinger 2001-2013
</metadata>
<g transform="translate(0.000000,260.000000) scale(0.100000,-0.100000)"
fill="#000000" stroke="none">
<path d="M713 1988 c-6 -7 -29 -51 -53 -98 -23 -47 -82 -161 -130 -255 -48
-93 -132 -258 -187 -365 -56 -107 -153 -297 -217 -421 -64 -125 -116 -231
-116 -236 0 -5 46 -8 101 -8 l102 0 289 580 c159 319 293 584 298 589 5 5 105
-186 241 -460 127 -258 235 -476 239 -484 7 -14 -22 -15 -256 -15 -145 0 -264
-2 -263 -5 0 -3 23 -50 52 -105 l52 -101 368 1 c202 0 367 2 367 4 0 4 -73
148 -180 356 -37 72 -132 256 -210 410 -79 154 -183 357 -231 450 l-88 170
-84 3 c-59 2 -87 -1 -94 -10z"/>
<path d="M1639 1998 c-4 -12 -3 -1388 1 -1389 3 -1 218 -2 478 -3 466 -1 472
-1 473 19 6 135 3 185 -11 186 -8 1 -179 3 -380 4 -201 1 -371 3 -377 4 -10 1
-13 126 -13 591 l0 590 -85 0 c-47 0 -85 -1 -86 -2z"/>
<path d="M1845 1297 c2 -257 3 -275 24 -322 29 -65 46 -83 105 -111 41 -19 64
-23 125 -21 77 3 128 20 199 67 l32 22 0 -36 0 -36 115 0 115 0 0 208 0 207
-113 52 -112 51 -5 -156 -5 -157 -38 -19 c-48 -23 -128 -24 -162 -2 -14 10
-31 29 -36 44 -7 16 -11 119 -12 255 l0 227 -117 0 -116 0 1 -273z"/>
<path d="M2330 1520 l0 -50 106 -50 c59 -28 111 -50 115 -50 5 0 9 45 9 100
l0 100 -115 0 -115 0 0 -50z"/>
</g>
</svg>
